<svg xmlns="http://www.w3.org/2000/svg" width="28" height="29" viewBox="0 0 28 29" fill="none">
  <path d="M15.0769 10.9103C15.0769 11.505 14.5948 11.9872 14 11.9872C13.4052 11.9872 12.9231 11.505 12.9231 10.9103C12.9231 10.3155 13.4052 9.83333 14 9.83333C14.5948 9.83333 15.0769 10.3155 15.0769 10.9103Z" fill="#25D366"/>
  <path d="M15.0769 14.5C15.0769 15.0948 14.5948 15.5769 14 15.5769C13.4052 15.5769 12.9231 15.0948 12.9231 14.5C12.9231 13.9052 13.4052 13.4231 14 13.4231C14.5948 13.4231 15.0769 13.9052 15.0769 14.5Z" fill="#25D366"/>
  <path d="M15.0769 18.0897C15.0769 18.6845 14.5948 19.1667 14 19.1667C13.4052 19.1667 12.9231 18.6845 12.9231 18.0897C12.9231 17.495 13.4052 17.0128 14 17.0128C14.5948 17.0128 15.0769 17.495 15.0769 18.0897Z" fill="#25D366"/>
  <path fill-rule="evenodd" clip-rule="evenodd" d="M28 14.5C28 22.232 21.732 28.5 14 28.5C9.85367 28.5 6.12833 26.6975 3.56484 23.8333H7.32532H14C17.6863 23.8333 20.6747 20.8734 20.6747 17.2222V11.7778C20.6747 11.6154 20.6688 11.4543 20.6571 11.2948C20.6688 11.0684 20.6747 10.8404 20.6747 10.6111V9.83333L25.2698 6.19228C26.9857 8.51612 28 11.3896 28 14.5ZM2.73025 22.8077L7.32532 19.1667V18.3889C7.32532 18.1596 7.33121 17.9316 7.34286 17.7052C7.33123 17.5457 7.32532 17.3846 7.32532 17.2222V11.7778C7.32532 8.12656 10.3137 5.16667 14 5.16667H20.6747H24.4352C21.8717 2.3025 18.1463 0.5 14 0.5C6.26801 0.5 0 6.76801 0 14.5C0 17.6104 1.01433 20.4839 2.73025 22.8077ZM14 19.1667C13.4052 19.1667 12.9231 18.6845 12.9231 18.0897C12.9231 17.495 13.4052 17.0128 14 17.0128C14.5948 17.0128 15.0769 17.495 15.0769 18.0897C15.0769 18.6845 14.5948 19.1667 14 19.1667ZM15.0769 10.9103C15.0769 10.3155 14.5948 9.83333 14 9.83333C13.4052 9.83333 12.9231 10.3155 12.9231 10.9103C12.9231 11.505 13.4052 11.9872 14 11.9872C14.5948 11.9872 15.0769 11.505 15.0769 10.9103ZM15.0769 14.5C15.0769 15.0948 14.5948 15.5769 14 15.5769C13.4052 15.5769 12.9231 15.0948 12.9231 14.5C12.9231 13.9052 13.4052 13.4231 14 13.4231C14.5948 13.4231 15.0769 13.9052 15.0769 14.5Z" fill="#25D366"/>
</svg>